<?xml version="1.0" encoding="UTF-8" standalone="no"?>
<svg
   xmlns:dc="http://purl.org/dc/elements/1.1/"
   xmlns:cc="http://creativecommons.org/ns#"
   xmlns:rdf="http://www.w3.org/1999/02/22-rdf-syntax-ns#"
   xmlns:svg="http://www.w3.org/2000/svg"
   xmlns="http://www.w3.org/2000/svg"
   xmlns:sodipodi="http://sodipodi.sourceforge.net/DTD/sodipodi-0.dtd"
   xmlns:inkscape="http://www.inkscape.org/namespaces/inkscape"
   class="diagram"
   version="1.1"
   height="569"
   width="1064"
   id="svg1869"
   sodipodi:docname="net.svg"
   inkscape:export-filename="/home/debe/Documenti/tesi/net.svg.png"
   inkscape:export-xdpi="299"
   inkscape:export-ydpi="299"
   inkscape:version="0.92.1 r15371">
  <metadata
     id="metadata1875">
    <rdf:RDF>
      <cc:Work
         rdf:about="">
        <dc:format>image/svg+xml</dc:format>
        <dc:type
           rdf:resource="http://purl.org/dc/dcmitype/StillImage" />
        <dc:title></dc:title>
      </cc:Work>
    </rdf:RDF>
  </metadata>
  <defs
     id="defs1873">
    <linearGradient
       gradientTransform="matrix(0.19967924,0,0,0.19967924,-279.13651,-25.4892)"
       y2="146"
       x2="595.5"
       y1="131"
       x1="595.5"
       gradientUnits="userSpaceOnUse"
       id="SVGID_1_">
      <stop
         id="stop22"
         style="stop-color:#000000;stop-opacity:0.5"
         offset="0" />
      <stop
         id="stop24"
         style="stop-color:#000000"
         offset="1" />
    </linearGradient>
    <linearGradient
       y2="146"
       x2="595.5"
       y1="131"
       x1="595.5"
       gradientUnits="userSpaceOnUse"
       id="SVGID_1_-0">
      <stop
         id="stop22-2"
         style="stop-color:#000000;stop-opacity:0.5"
         offset="0" />
      <stop
         id="stop24-3"
         style="stop-color:#000000"
         offset="1" />
    </linearGradient>
  </defs>
  <sodipodi:namedview
     pagecolor="#ffffff"
     bordercolor="#666666"
     borderopacity="1"
     objecttolerance="10"
     gridtolerance="10"
     guidetolerance="10"
     inkscape:pageopacity="0"
     inkscape:pageshadow="2"
     inkscape:window-width="3840"
     inkscape:window-height="2031"
     id="namedview1871"
     showgrid="false"
     inkscape:zoom="1.611924"
     inkscape:cx="260.15268"
     inkscape:cy="342.66776"
     inkscape:window-x="2560"
     inkscape:window-y="55"
     inkscape:window-maximized="1"
     inkscape:current-layer="svg1869" />
  <path
     inkscape:connector-curvature="0"
     id="path1343"
     style="fill:none;stroke:#000000"
     d="m 112,80 h 8" />
  <path
     inkscape:connector-curvature="0"
     id="path1345"
     style="fill:none;stroke:#000000"
     d="M 80,96 H 96" />
  <path
     inkscape:connector-curvature="0"
     id="path1347"
     style="fill:none;stroke:#000000"
     d="m 168,96 h 8" />
  <path
     inkscape:connector-curvature="0"
     id="path1351"
     style="fill:none;stroke:#000000"
     d="m 80,128 h 48" />
  <path
     inkscape:connector-curvature="0"
     id="path1353"
     style="fill:none;stroke:#000000"
     d="m 128,128 h 48" />
  <path
     inkscape:connector-curvature="0"
     id="path1355"
     style="fill:none;stroke:#000000"
     d="M 320,176 H 448" />
  <path
     inkscape:connector-curvature="0"
     id="path1357"
     style="fill:none;stroke:#000000"
     d="M 448,176 H 552" />
  <path
     inkscape:connector-curvature="0"
     id="path1359"
     style="fill:none;stroke:#000000"
     d="m 768,176 h 72" />
  <path
     inkscape:connector-curvature="0"
     id="path1361"
     style="fill:none;stroke:#000000"
     d="M 640,208 H 760" />
  <path
     inkscape:connector-curvature="0"
     id="path1363"
     style="fill:none;stroke:#000000"
     d="m 768,224 h 72" />
  <path
     inkscape:connector-curvature="0"
     id="path1365"
     style="fill:none;stroke:#000000"
     d="m 104,240 h 24" />
  <path
     inkscape:connector-curvature="0"
     id="path1367"
     style="fill:none;stroke:#000000"
     d="m 128,240 h 32" />
  <path
     inkscape:connector-curvature="0"
     id="path1369"
     style="fill:none;stroke:#000000"
     d="m 424,240 h 24" />
  <path
     inkscape:connector-curvature="0"
     id="path1371"
     style="fill:none;stroke:#000000"
     d="m 448,240 h 32" />
  <path
     inkscape:connector-curvature="0"
     id="path1373"
     style="fill:none;stroke:#000000"
     d="M 752,256 H 856" />
  <path
     inkscape:connector-curvature="0"
     id="path1375"
     style="fill:none;stroke:#000000"
     d="m 88,272 h 56" />
  <path
     inkscape:connector-curvature="0"
     id="path1377"
     style="fill:none;stroke:#000000"
     d="m 408,272 h 56" />
  <path
     inkscape:connector-curvature="0"
     id="path1379"
     style="fill:none;stroke:#000000"
     d="M 168,288 H 400" />
  <path
     inkscape:connector-curvature="0"
     id="path1381"
     style="fill:none;stroke:#000000"
     d="M 488,288 H 624" />
  <path
     inkscape:connector-curvature="0"
     id="path1383"
     style="fill:none;stroke:#000000"
     d="m 88,336 h 32" />
  <path
     inkscape:connector-curvature="0"
     id="path1385"
     style="fill:none;stroke:#000000"
     d="m 120,336 h 24" />
  <path
     inkscape:connector-curvature="0"
     id="path1387"
     style="fill:none;stroke:#000000"
     d="m 408,336 h 32" />
  <path
     inkscape:connector-curvature="0"
     id="path1389"
     style="fill:none;stroke:#000000"
     d="m 440,336 h 24" />
  <path
     inkscape:connector-curvature="0"
     id="path1391"
     style="fill:none;stroke:#000000"
     d="m 768,352 h 72" />
  <path
     inkscape:connector-curvature="0"
     id="path1393"
     style="fill:none;stroke:#000000"
     d="M 640,384 H 760" />
  <path
     inkscape:connector-curvature="0"
     id="path1395"
     style="fill:none;stroke:#000000"
     d="M 16,400 H 56" />
  <path
     inkscape:connector-curvature="0"
     id="path1397"
     style="fill:none;stroke:#000000"
     d="M 56,400 H 224" />
  <path
     inkscape:connector-curvature="0"
     id="path1399"
     style="fill:none;stroke:#000000"
     d="M 224,400 H 336" />
  <path
     inkscape:connector-curvature="0"
     id="path1401"
     style="fill:none;stroke:#000000"
     d="m 768,400 h 72" />
  <path
     inkscape:connector-curvature="0"
     id="path1403"
     style="fill:none;stroke:#000000"
     d="M 752,432 H 856" />
  <path
     inkscape:connector-curvature="0"
     id="path1405"
     style="fill:none;stroke:#000000"
     d="M 32,464 H 56" />
  <path
     inkscape:connector-curvature="0"
     id="path1407"
     style="fill:none;stroke:#000000"
     d="M 56,464 H 88" />
  <path
     inkscape:connector-curvature="0"
     id="path1409"
     style="fill:none;stroke:#000000"
     d="m 200,464 h 24" />
  <path
     inkscape:connector-curvature="0"
     id="path1411"
     style="fill:none;stroke:#000000"
     d="m 224,464 h 32" />
  <path
     inkscape:connector-curvature="0"
     id="path1413"
     style="fill:none;stroke:#000000"
     d="M 16,496 H 72" />
  <path
     inkscape:connector-curvature="0"
     id="path1415"
     style="fill:none;stroke:#000000"
     d="m 184,496 h 56" />
  <path
     inkscape:connector-curvature="0"
     id="path1417"
     style="fill:none;stroke:#000000"
     d="m 416,496 h 8" />
  <path
     inkscape:connector-curvature="0"
     id="path1419"
     style="fill:none;stroke:#000000"
     d="m 384,512 h 16" />
  <path
     inkscape:connector-curvature="0"
     id="path1421"
     style="fill:none;stroke:#000000"
     d="m 472,512 h 8" />
  <path
     inkscape:connector-curvature="0"
     id="path1423"
     style="fill:none;stroke:#000000"
     d="m 384,544 h 24" />
  <path
     inkscape:connector-curvature="0"
     id="path1425"
     style="fill:none;stroke:#000000"
     d="m 408,544 h 72" />
  <path
     inkscape:connector-curvature="0"
     id="path1427"
     style="fill:none;stroke:#000000"
     d="M 16,560 H 48" />
  <path
     inkscape:connector-curvature="0"
     id="path1429"
     style="fill:none;stroke:#000000"
     d="M 48,560 H 72" />
  <path
     inkscape:connector-curvature="0"
     id="path1431"
     style="fill:none;stroke:#000000"
     d="m 184,560 h 32" />
  <path
     inkscape:connector-curvature="0"
     id="path1433"
     style="fill:none;stroke:#000000"
     d="m 216,560 h 24" />
  <path
     inkscape:connector-curvature="0"
     id="path1435"
     style="fill:none;stroke:#000000"
     d="m 792,248 h 24" />
  <path
     inkscape:connector-curvature="0"
     id="path1437"
     style="fill:none;stroke:#000000"
     d="m 792,424 h 24" />
  <path
     inkscape:connector-curvature="0"
     id="path1439"
     style="fill:none;stroke:#000000"
     d="m 16,496 v 64" />
  <path
     inkscape:connector-curvature="0"
     id="path1441"
     style="fill:none;stroke:#000000"
     d="m 56,416 v 32" />
  <path
     inkscape:connector-curvature="0"
     id="path1443"
     style="fill:none;stroke:#000000"
     d="m 56,448 v 16" />
  <path
     inkscape:connector-curvature="0"
     id="path1445"
     style="fill:none;stroke:#000000"
     d="m 72,496 v 64" />
  <path
     inkscape:connector-curvature="0"
     id="path1447"
     style="fill:none;stroke:#000000"
     d="m 88,272 v 64" />
  <path
     inkscape:connector-curvature="0"
     id="path1449"
     style="fill:none;stroke:#000000"
     d="m 88,464 v 64" />
  <path
     inkscape:connector-curvature="0"
     id="path1451"
     style="fill:none;stroke:#000000"
     d="m 120,352 v 32" />
  <path
     inkscape:connector-curvature="0"
     id="path1453"
     style="fill:none;stroke:#000000"
     d="m 128,144 v 80" />
  <path
     inkscape:connector-curvature="0"
     id="path1455"
     style="fill:none;stroke:#000000"
     d="m 128,224 v 16" />
  <path
     inkscape:connector-curvature="0"
     id="path1457"
     style="fill:none;stroke:#000000"
     d="m 144,272 v 64" />
  <path
     inkscape:connector-curvature="0"
     id="path1459"
     style="fill:none;stroke:#000000"
     d="m 160,240 v 48" />
  <path
     inkscape:connector-curvature="0"
     id="path1461"
     style="fill:none;stroke:#000000"
     d="m 160,288 v 16" />
  <path
     inkscape:connector-curvature="0"
     id="path1463"
     style="fill:none;stroke:#000000"
     d="m 184,496 v 64" />
  <path
     inkscape:connector-curvature="0"
     id="path1465"
     style="fill:none;stroke:#000000"
     d="m 224,416 v 32" />
  <path
     inkscape:connector-curvature="0"
     id="path1467"
     style="fill:none;stroke:#000000"
     d="m 224,448 v 16" />
  <path
     inkscape:connector-curvature="0"
     id="path1469"
     style="fill:none;stroke:#000000"
     d="m 240,496 v 64" />
  <path
     inkscape:connector-curvature="0"
     id="path1471"
     style="fill:none;stroke:#000000"
     d="m 256,464 v 64" />
  <path
     inkscape:connector-curvature="0"
     id="path1475"
     style="fill:none;stroke:#000000"
     d="m 352,112 v 48" />
  <path
     inkscape:connector-curvature="0"
     id="path1479"
     style="fill:none;stroke:#000000"
     d="m 408,272 v 16" />
  <path
     inkscape:connector-curvature="0"
     id="path1481"
     style="fill:none;stroke:#000000"
     d="m 408,288 v 48" />
  <path
     inkscape:connector-curvature="0"
     id="path1483"
     style="fill:none;stroke:#000000"
     d="M 440,352 V 464" />
  <path
     inkscape:connector-curvature="0"
     id="path1485"
     style="fill:none;stroke:#000000"
     d="m 448,192 v 32" />
  <path
     inkscape:connector-curvature="0"
     id="path1487"
     style="fill:none;stroke:#000000"
     d="m 448,224 v 16" />
  <path
     inkscape:connector-curvature="0"
     id="path1489"
     style="fill:none;stroke:#000000"
     d="m 464,272 v 64" />
  <path
     inkscape:connector-curvature="0"
     id="path1491"
     style="fill:none;stroke:#000000"
     d="m 480,240 v 48" />
  <path
     inkscape:connector-curvature="0"
     id="path1493"
     style="fill:none;stroke:#000000"
     d="m 480,288 v 16" />
  <path
     inkscape:connector-curvature="0"
     id="path1495"
     style="fill:none;stroke:#000000"
     d="M 632,96 V 208" />
  <path
     inkscape:connector-curvature="0"
     id="path1497"
     style="fill:none;stroke:#000000"
     d="m 632,208 v 80" />
  <path
     inkscape:connector-curvature="0"
     id="path1499"
     style="fill:none;stroke:#000000"
     d="m 632,288 v 96" />
  <path
     inkscape:connector-curvature="0"
     id="path1501"
     style="fill:none;stroke:#000000"
     d="M 632,384 V 496" />
  <path
     inkscape:connector-curvature="0"
     id="path1503"
     style="fill:none;stroke:#000000"
     d="m 768,176 v 32" />
  <path
     inkscape:connector-curvature="0"
     id="path1505"
     style="fill:none;stroke:#000000"
     d="m 768,208 v 16" />
  <path
     inkscape:connector-curvature="0"
     id="path1507"
     style="fill:none;stroke:#000000"
     d="m 768,352 v 32" />
  <path
     inkscape:connector-curvature="0"
     id="path1509"
     style="fill:none;stroke:#000000"
     d="m 768,384 v 16" />
  <path
     inkscape:connector-curvature="0"
     id="path1511"
     style="fill:none;stroke:#000000"
     d="m 840,176 v 48" />
  <path
     inkscape:connector-curvature="0"
     id="path1513"
     style="fill:none;stroke:#000000"
     d="m 840,352 v 48" />
  <path
     inkscape:connector-curvature="0"
     id="path1515"
     style="fill:none;stroke:#000000"
     d="m 88,272 16,-32" />
  <path
     inkscape:connector-curvature="0"
     id="path1517"
     style="fill:none;stroke:#000000"
     d="M 16,496 32,464" />
  <path
     inkscape:connector-curvature="0"
     id="path1519"
     style="fill:none;stroke:#000000"
     d="m 144,272 16,-32" />
  <path
     inkscape:connector-curvature="0"
     id="path1521"
     style="fill:none;stroke:#000000"
     d="m 144,336 16,-32" />
  <path
     inkscape:connector-curvature="0"
     id="path1523"
     style="fill:none;stroke:#000000"
     d="M 72,496 88,464" />
  <path
     inkscape:connector-curvature="0"
     id="path1525"
     style="fill:none;stroke:#000000"
     d="M 72,560 88,528" />
  <path
     inkscape:connector-curvature="0"
     id="path1527"
     style="fill:none;stroke:#000000"
     d="m 184,496 16,-32" />
  <path
     inkscape:connector-curvature="0"
     id="path1529"
     style="fill:none;stroke:#000000"
     d="m 240,496 16,-32" />
  <path
     inkscape:connector-curvature="0"
     id="path1531"
     style="fill:none;stroke:#000000"
     d="m 240,560 16,-32" />
  <path
     inkscape:connector-curvature="0"
     id="path1533"
     style="fill:none;stroke:#000000"
     d="m 408,272 16,-32" />
  <path
     inkscape:connector-curvature="0"
     id="path1535"
     style="fill:none;stroke:#000000"
     d="m 464,272 16,-32" />
  <path
     inkscape:connector-curvature="0"
     id="path1537"
     style="fill:none;stroke:#000000"
     d="m 464,336 16,-32" />
  <path
     inkscape:connector-curvature="0"
     id="path1539"
     style="fill:none;stroke:#000000"
     d="m 752,256 16,-32" />
  <path
     inkscape:connector-curvature="0"
     id="path1541"
     style="fill:none;stroke:#000000"
     d="m 764,248 8,-16" />
  <path
     inkscape:connector-curvature="0"
     id="path1543"
     style="fill:none;stroke:#000000"
     d="m 772,248 8,-16" />
  <path
     inkscape:connector-curvature="0"
     id="path1545"
     style="fill:none;stroke:#000000"
     d="m 752,432 16,-32" />
  <path
     inkscape:connector-curvature="0"
     id="path1547"
     style="fill:none;stroke:#000000"
     d="m 764,424 8,-16" />
  <path
     inkscape:connector-curvature="0"
     id="path1549"
     style="fill:none;stroke:#000000"
     d="m 772,424 8,-16" />
  <path
     inkscape:connector-curvature="0"
     id="path1551"
     style="fill:none;stroke:#000000"
     d="m 828,408 8,16" />
  <path
     inkscape:connector-curvature="0"
     id="path1553"
     style="fill:none;stroke:#000000"
     d="m 836,408 8,16" />
  <path
     inkscape:connector-curvature="0"
     id="path1555"
     style="fill:none;stroke:#000000"
     d="m 840,400 16,32" />
  <path
     inkscape:connector-curvature="0"
     id="path1557"
     style="fill:none;stroke:#000000"
     d="m 828,232 8,16" />
  <path
     inkscape:connector-curvature="0"
     id="path1559"
     style="fill:none;stroke:#000000"
     d="m 836,232 8,16" />
  <path
     inkscape:connector-curvature="0"
     id="path1561"
     style="fill:none;stroke:#000000"
     d="m 840,224 16,32" />
  <path
     inkscape:connector-curvature="0"
     id="path1563"
     style="fill:none;stroke:#000000"
     d="m 56,408 v 8" />
  <polygon
     id="polygon1565"
     transform="rotate(-90,60,404)"
     style="fill:#000000"
     points="52,405.60001 64,400 52,394.39999 " />
  <path
     inkscape:connector-curvature="0"
     id="path1567"
     style="fill:none;stroke:#000000"
     d="m 56,448 v 8" />
  <polygon
     id="polygon1569"
     transform="rotate(90,44,444)"
     style="fill:#000000"
     points="52,437.60001 64,432 52,426.39999 " />
  <path
     inkscape:connector-curvature="0"
     id="path1571"
     style="fill:none;stroke:#000000"
     d="m 120,344 v 8" />
  <polygon
     id="polygon1573"
     transform="rotate(-90,124,340)"
     style="fill:#000000"
     points="116,341.60001 128,336 116,330.39999 " />
  <path
     inkscape:connector-curvature="0"
     id="path1575"
     style="fill:none;stroke:#000000"
     d="m 120,384 v 8" />
  <polygon
     id="polygon1577"
     transform="rotate(90,108,380)"
     style="fill:#000000"
     points="116,373.60001 128,368 116,362.39999 " />
  <path
     inkscape:connector-curvature="0"
     id="path1579"
     style="fill:none;stroke:#000000"
     d="m 128,136 v 8" />
  <polygon
     id="polygon1581"
     transform="rotate(-90,132,132)"
     style="fill:#000000"
     points="124,133.60001 136,128 124,122.4 " />
  <path
     inkscape:connector-curvature="0"
     id="path1583"
     style="fill:none;stroke:#000000"
     d="m 128,224 v 8" />
  <polygon
     id="polygon1585"
     transform="rotate(90,116,220)"
     style="fill:#000000"
     points="124,213.60001 136,208 124,202.39999 " />
  <polygon
     id="polygon1587"
     transform="rotate(180,164,280)"
     style="fill:#000000"
     points="156,277.60001 168,272 156,266.39999 " />
  <path
     inkscape:connector-curvature="0"
     id="path1589"
     style="fill:none;stroke:#000000"
     d="m 224,408 v 8" />
  <polygon
     id="polygon1591"
     transform="rotate(-90,228,404)"
     style="fill:#000000"
     points="220,405.60001 232,400 220,394.39999 " />
  <path
     inkscape:connector-curvature="0"
     id="path1593"
     style="fill:none;stroke:#000000"
     d="m 224,448 v 8" />
  <polygon
     id="polygon1595"
     transform="rotate(90,212,444)"
     style="fill:#000000"
     points="220,437.60001 232,432 220,426.39999 " />
  <path
     inkscape:connector-curvature="0"
     id="path1597"
     style="fill:none;stroke:#000000"
     d="m 352,104 v 8" />
  <polygon
     id="polygon1599"
     transform="rotate(-90,356,100)"
     style="fill:#000000"
     points="348,101.6 360,96 348,90.400002 " />
  <path
     inkscape:connector-curvature="0"
     id="path1601"
     style="fill:none;stroke:#000000"
     d="m 352,160 v 8" />
  <polygon
     id="polygon1603"
     transform="rotate(90,340,156)"
     style="fill:#000000"
     points="348,149.60001 360,144 348,138.39999 " />
  <polygon
     id="polygon1605"
     style="fill:#000000"
     points="388,277.60001 400,272 388,266.39999 "
     transform="translate(8,16)" />
  <path
     inkscape:connector-curvature="0"
     id="path1607"
     style="fill:none;stroke:#000000"
     d="m 440,344 v 8" />
  <polygon
     id="polygon1609"
     transform="rotate(-90,444,340)"
     style="fill:#000000"
     points="436,341.60001 448,336 436,330.39999 " />
  <path
     inkscape:connector-curvature="0"
     id="path1611"
     style="fill:none;stroke:#000000"
     d="m 440,464 v 8" />
  <polygon
     id="polygon1613"
     transform="rotate(90,428,460)"
     style="fill:#000000"
     points="436,453.60001 448,448 436,442.39999 " />
  <path
     inkscape:connector-curvature="0"
     id="path1615"
     style="fill:none;stroke:#000000"
     d="m 448,184 v 8" />
  <polygon
     id="polygon1617"
     transform="rotate(-90,452,180)"
     style="fill:#000000"
     points="444,181.60001 456,176 444,170.39999 " />
  <path
     inkscape:connector-curvature="0"
     id="path1619"
     style="fill:none;stroke:#000000"
     d="m 448,224 v 8" />
  <polygon
     id="polygon1621"
     transform="rotate(90,436,220)"
     style="fill:#000000"
     points="444,213.60001 456,208 444,202.39999 " />
  <polygon
     id="polygon1623"
     transform="rotate(180,484,280)"
     style="fill:#000000"
     points="476,277.60001 488,272 476,266.39999 " />
  <polygon
     id="polygon1625"
     style="fill:#000000"
     points="612,277.60001 624,272 612,266.39999 "
     transform="translate(8,16)" />
  <polygon
     id="polygon1627"
     transform="rotate(180,636,200)"
     style="fill:#000000"
     points="628,197.60001 640,192 628,186.39999 " />
  <polygon
     id="polygon1629"
     transform="rotate(180,636,376)"
     style="fill:#000000"
     points="628,373.60001 640,368 628,362.39999 " />
  <polygon
     id="polygon1631"
     style="fill:#000000"
     points="748,197.60001 760,192 748,186.39999 "
     transform="translate(8,16)" />
  <polygon
     id="polygon1633"
     style="fill:#000000"
     points="748,373.60001 760,368 748,362.39999 "
     transform="translate(8,16)" />
  <path
     inkscape:connector-curvature="0"
     id="path1639"
     style="fill:none;stroke:#000000"
     d="M 136,64 A 16,16 0 0 0 120,80" />
  <path
     inkscape:connector-curvature="0"
     id="path1641"
     style="fill:none;stroke:#000000"
     d="m 136,64 a 16,16 0 0 1 16,16" />
  <path
     inkscape:connector-curvature="0"
     id="path1643"
     style="fill:none;stroke:#000000"
     d="M 112,80 A 16,16 0 0 0 96,96" />
  <path
     inkscape:connector-curvature="0"
     id="path1645"
     style="fill:none;stroke:#000000"
     d="M 80,96 A 16,16 0 0 0 64,112" />
  <path
     inkscape:connector-curvature="0"
     id="path1647"
     style="fill:none;stroke:#000000"
     d="m 152,80 a 16,16 0 0 0 16,16" />
  <path
     inkscape:connector-curvature="0"
     id="path1649"
     style="fill:none;stroke:#000000"
     d="m 176,96 a 16,16 0 0 1 16,16" />
  <path
     inkscape:connector-curvature="0"
     id="path1655"
     style="fill:none;stroke:#000000"
     d="m 64,112 a 16,16 0 0 0 16,16" />
  <path
     inkscape:connector-curvature="0"
     id="path1657"
     style="fill:none;stroke:#000000"
     d="m 192,112 a 16,16 0 0 1 -16,16" />
  <path
     inkscape:connector-curvature="0"
     id="path1659"
     style="fill:none;stroke:#000000"
     d="m 440,480 a 16,16 0 0 0 -16,16" />
  <path
     inkscape:connector-curvature="0"
     id="path1661"
     style="fill:none;stroke:#000000"
     d="m 440,480 a 16,16 0 0 1 16,16" />
  <path
     inkscape:connector-curvature="0"
     id="path1663"
     style="fill:none;stroke:#000000"
     d="m 416,496 a 16,16 0 0 0 -16,16" />
  <path
     inkscape:connector-curvature="0"
     id="path1665"
     style="fill:none;stroke:#000000"
     d="m 384,512 a 16,16 0 0 0 -16,16" />
  <path
     inkscape:connector-curvature="0"
     id="path1667"
     style="fill:none;stroke:#000000"
     d="m 456,496 a 16,16 0 0 0 16,16" />
  <path
     inkscape:connector-curvature="0"
     id="path1669"
     style="fill:none;stroke:#000000"
     d="m 480,512 a 16,16 0 0 1 16,16" />
  <path
     inkscape:connector-curvature="0"
     id="path1671"
     style="fill:none;stroke:#000000"
     d="m 368,528 a 16,16 0 0 0 16,16" />
  <path
     inkscape:connector-curvature="0"
     id="path1673"
     style="fill:none;stroke:#000000"
     d="m 496,528 a 16,16 0 0 1 -16,16" />
  <text
     id="text1677"
     style="font-size:12px;font-family:Menlo, 'Lucida Console', monospace;text-anchor:middle;fill:#800000;"
     y="308"
     x="112">F</text>
  <text
     id="text1679"
     style="font-size:12px;font-family:Menlo, 'Lucida Console', monospace;text-anchor:middle;fill:#000000"
     y="164"
     x="432">e</text>
  <text
     id="text1681"
     style="font-size:12px;font-family:Menlo, 'Lucida Console', monospace;text-anchor:middle;fill:#000000"
     y="388"
     x="224">M</text>
  <text
     id="text1683"
     style="font-size:12px;font-family:Menlo, 'Lucida Console', monospace;text-anchor:middle;fill:#000000"
     y="260"
     x="376">e</text>
  <text
     id="text1685"
     style="font-size:12px;font-family:Menlo, 'Lucida Console', monospace;text-anchor:middle;fill:#000000"
     y="276"
     x="528">L</text>
  <text
     id="text1687"
     style="font-size:12px;font-family:Menlo, 'Lucida Console', monospace;text-anchor:middle;fill:#000000"
     y="164"
     x="488">i</text>
  <text
     id="text1689"
     style="font-size:12px;font-family:Menlo, 'Lucida Console', monospace;text-anchor:middle;fill:#000000"
     y="260"
     x="48">t</text>
  <text
     id="text1691"
     style="font-size:12px;font-family:Menlo, 'Lucida Console', monospace;text-anchor:middle;fill:#000000"
     y="164"
     x="464">i</text>
  <text
     id="text1693"
     style="font-size:12px;font-family:Menlo, 'Lucida Console', monospace;text-anchor:middle;fill:#000000"
     y="260"
     x="392">n</text>
  <text
     id="text1695"
     style="font-size:12px;font-family:Menlo, 'Lucida Console', monospace;text-anchor:middle;fill:#000000"
     y="276"
     x="544">N</text>
  <text
     id="text1697"
     style="font-size:12px;font-family:Menlo, 'Lucida Console', monospace;text-anchor:middle;fill:#000000"
     y="164"
     x="504">v</text>
  <text
     id="text1699"
     style="font-size:12px;font-family:Menlo, 'Lucida Console', monospace;text-anchor:middle;fill:#000000"
     y="260"
     x="64">r</text>
  <text
     id="text1701"
     style="font-size:12px;font-family:Menlo, 'Lucida Console', monospace;text-anchor:middle;fill:#000000"
     y="164"
     x="520">a</text>
  <text
     id="text1703"
     style="font-size:12px;font-family:Menlo, 'Lucida Console', monospace;text-anchor:middle;fill:#800000;"
     y="292"
     x="104">↖</text>
  <text
     id="text1705"
     style="font-size:12px;font-family:Menlo, 'Lucida Console', monospace;text-anchor:middle;fill:#000000"
     y="116"
     x="96">I</text>
  <text
     id="text1707"
     style="font-size:12px;font-family:Menlo, 'Lucida Console', monospace;text-anchor:middle;fill:#800000;"
     y="292"
     x="448">↗</text>
  <text
     id="text1709"
     style="font-size:12px;font-family:Menlo, 'Lucida Console', monospace;text-anchor:middle;fill:#000000"
     y="532"
     x="400">t</text>
  <text
     id="text1711"
     style="font-size:12px;font-family:Menlo, 'Lucida Console', monospace;text-anchor:middle;fill:#000000"
     y="532"
     x="32">W</text>
  <text
     id="text1713"
     style="font-size:12px;font-family:Menlo, 'Lucida Console', monospace;text-anchor:middle;fill:#000000"
     y="116"
     x="136">n</text>
  <text
     id="text1715"
     style="font-size:12px;font-family:Menlo, 'Lucida Console', monospace;text-anchor:middle;fill:#000000"
     y="244"
     x="352">F</text>
  <text
     id="text1717"
     style="font-size:12px;font-family:Menlo, 'Lucida Console', monospace;text-anchor:middle;fill:#800000;"
     y="320"
     x="104">↙</text>
  <text
     id="text1719"
     style="font-size:12px;font-family:Menlo, 'Lucida Console', monospace;text-anchor:middle;fill:#800000;"
     y="320"
     x="448">↘</text>
  <text
     id="text1721"
     style="font-size:12px;font-family:Menlo, 'Lucida Console', monospace;text-anchor:middle;fill:#000000"
     y="116"
     x="152">t</text>
  <text
     id="text1723"
     style="font-size:12px;font-family:Menlo, 'Lucida Console', monospace;text-anchor:middle;fill:#000000"
     y="244"
     x="368">r</text>
  <text
     id="text1725"
     style="font-size:12px;font-family:Menlo, 'Lucida Console', monospace;text-anchor:middle;fill:#000000"
     y="532"
     x="456">o</text>
  <text
     id="text1727"
     style="font-size:12px;font-family:Menlo, 'Lucida Console', monospace;text-anchor:middle;fill:#000000"
     y="244"
     x="40">i</text>
  <text
     id="text1729"
     style="font-size:12px;font-family:Menlo, 'Lucida Console', monospace;text-anchor:middle;fill:#000000"
     y="244"
     x="408">l</text>
  <text
     id="text1731"
     style="font-size:12px;font-family:Menlo, 'Lucida Console', monospace;text-anchor:middle;fill:#000000"
     y="244"
     x="384">w</text>
  <text
     id="text1733"
     style="font-size:12px;font-family:Menlo, 'Lucida Console', monospace;text-anchor:middle;fill:#000000"
     y="244"
     x="80">l</text>
  <text
     id="text1735"
     style="font-size:12px;font-family:Menlo, 'Lucida Console', monospace;text-anchor:middle;fill:#000000"
     y="532"
     x="472">a</text>
  <text
     id="text1737"
     style="font-size:12px;font-family:Menlo, 'Lucida Console', monospace;text-anchor:middle;fill:#000000"
     y="212"
     x="808">C</text>
  <text
     id="text1739"
     style="font-size:12px;font-family:Menlo, 'Lucida Console', monospace;text-anchor:middle;fill:#000000"
     y="532"
     x="200">D</text>
  <text
     id="text1741"
     style="font-size:12px;font-family:Menlo, 'Lucida Console', monospace;text-anchor:middle;fill:#000000"
     y="388"
     x="216">D</text>
  <text
     id="text1743"
     style="font-size:12px;font-family:Menlo, 'Lucida Console', monospace;text-anchor:middle;fill:#800000;"
     y="308"
     x="440">W</text>
  <text
     id="text1745"
     style="font-size:12px;font-family:Menlo, 'Lucida Console', monospace;text-anchor:middle;fill:#000000"
     y="164"
     x="416">F</text>
  <text
     id="text1747"
     style="font-size:12px;font-family:Menlo, 'Lucida Console', monospace;text-anchor:middle;fill:#000000"
     y="164"
     x="456">W</text>
  <text
     id="text1749"
     style="font-size:12px;font-family:Menlo, 'Lucida Console', monospace;text-anchor:middle;fill:#000000"
     y="388"
     x="232">Z</text>
  <text
     id="text1751"
     style="font-size:12px;font-family:Menlo, 'Lucida Console', monospace;text-anchor:middle;fill:#000000"
     y="276"
     x="536">A</text>
  <text
     id="text1753"
     style="font-size:12px;font-family:Menlo, 'Lucida Console', monospace;text-anchor:middle;fill:#000000"
     y="260"
     x="360">n</text>
  <text
     id="text1755"
     style="font-size:12px;font-family:Menlo, 'Lucida Console', monospace;text-anchor:middle;fill:#000000"
     y="164"
     x="472">-</text>
  <text
     id="text1757"
     style="font-size:12px;font-family:Menlo, 'Lucida Console', monospace;text-anchor:middle;fill:#000000"
     y="260"
     x="56">e</text>
  <text
     id="text1759"
     style="font-size:12px;font-family:Menlo, 'Lucida Console', monospace;text-anchor:middle;fill:#000000"
     y="276"
     x="208">L</text>
  <text
     id="text1761"
     style="font-size:12px;font-family:Menlo, 'Lucida Console', monospace;text-anchor:middle;fill:#000000"
     y="260"
     x="400">o</text>
  <text
     id="text1763"
     style="font-size:12px;font-family:Menlo, 'Lucida Console', monospace;text-anchor:middle;fill:#000000"
     y="260"
     x="32">E</text>
  <text
     id="text1765"
     style="font-size:12px;font-family:Menlo, 'Lucida Console', monospace;text-anchor:middle;fill:#000000"
     y="164"
     x="512">l</text>
  <text
     id="text1767"
     style="font-size:12px;font-family:Menlo, 'Lucida Console', monospace;text-anchor:middle;fill:#000000"
     y="260"
     x="72">n</text>
  <text
     id="text1769"
     style="font-size:12px;font-family:Menlo, 'Lucida Console', monospace;text-anchor:middle;fill:#000000"
     y="276"
     x="224">N</text>
  <text
     id="text1771"
     style="font-size:12px;font-family:Menlo, 'Lucida Console', monospace;text-anchor:middle;fill:#000000"
     y="164"
     x="528">n</text>
  <text
     id="text1773"
     style="font-size:12px;font-family:Menlo, 'Lucida Console', monospace;text-anchor:middle;fill:#000000"
     y="116"
     x="104">n</text>
  <text
     id="text1775"
     style="font-size:12px;font-family:Menlo, 'Lucida Console', monospace;text-anchor:middle;fill:#000000"
     y="532"
     x="408">e</text>
  <text
     id="text1777"
     style="font-size:12px;font-family:Menlo, 'Lucida Console', monospace;text-anchor:middle;fill:#000000"
     y="532"
     x="40">W</text>
  <text
     id="text1779"
     style="font-size:12px;font-family:Menlo, 'Lucida Console', monospace;text-anchor:middle;fill:#000000"
     y="532"
     x="384">R</text>
  <text
     id="text1781"
     style="font-size:12px;font-family:Menlo, 'Lucida Console', monospace;text-anchor:middle;fill:#800000;"
     y="292"
     x="128">↗</text>
  <text
     id="text1783"
     style="font-size:12px;font-family:Menlo, 'Lucida Console', monospace;text-anchor:middle;fill:#000000"
     y="116"
     x="120">e</text>
  <text
     id="text1785"
     style="font-size:12px;font-family:Menlo, 'Lucida Console', monospace;text-anchor:middle;fill:#000000"
     y="532"
     x="424">R</text>
  <text
     id="text1787"
     style="font-size:12px;font-family:Menlo, 'Lucida Console', monospace;text-anchor:middle;fill:#000000"
     y="244"
     x="376">e</text>
  <text
     id="text1789"
     style="font-size:12px;font-family:Menlo, 'Lucida Console', monospace;text-anchor:middle;fill:#800000;"
     y="320"
     x="128">↘</text>
  <text
     id="text1791"
     style="font-size:12px;font-family:Menlo, 'Lucida Console', monospace;text-anchor:middle;fill:#000000"
     y="244"
     x="48">r</text>
  <text
     id="text1793"
     style="font-size:12px;font-family:Menlo, 'Lucida Console', monospace;text-anchor:middle;fill:#000000"
     y="532"
     x="440">g</text>
  <text
     id="text1795"
     style="font-size:12px;font-family:Menlo, 'Lucida Console', monospace;text-anchor:middle;fill:#000000"
     y="244"
     x="392">a</text>
  <text
     id="text1797"
     style="font-size:12px;font-family:Menlo, 'Lucida Console', monospace;text-anchor:middle;fill:#000000"
     y="532"
     x="480">l</text>
  <text
     id="text1799"
     style="font-size:12px;font-family:Menlo, 'Lucida Console', monospace;text-anchor:middle;fill:#000000"
     y="244"
     x="64">w</text>
  <text
     id="text1801"
     style="font-size:12px;font-family:Menlo, 'Lucida Console', monospace;text-anchor:middle;fill:#000000"
     y="388"
     x="800">P</text>
  <text
     id="text1803"
     style="font-size:12px;font-family:Menlo, 'Lucida Console', monospace;text-anchor:middle;fill:#800000;"
     y="308"
     x="432">F</text>
  <text
     id="text1805"
     style="font-size:12px;font-family:Menlo, 'Lucida Console', monospace;text-anchor:middle;fill:#000000"
     y="532"
     x="208">N</text>
  <text
     id="text1807"
     style="font-size:12px;font-family:Menlo, 'Lucida Console', monospace;text-anchor:middle;fill:#000000"
     y="164"
     x="424">r</text>
  <text
     id="text1809"
     style="font-size:12px;font-family:Menlo, 'Lucida Console', monospace;text-anchor:middle;fill:#000000"
     y="260"
     x="352">I</text>
  <text
     id="text1811"
     style="font-size:12px;font-family:Menlo, 'Lucida Console', monospace;text-anchor:middle;fill:#800000;"
     y="308"
     x="120">W</text>
  <text
     id="text1813"
     style="font-size:12px;font-family:Menlo, 'Lucida Console', monospace;text-anchor:middle;fill:#000000"
     y="164"
     x="440">e</text>
  <text
     id="text1815"
     style="font-size:12px;font-family:Menlo, 'Lucida Console', monospace;text-anchor:middle;fill:#000000"
     y="260"
     x="368">t</text>
  <text
     id="text1817"
     style="font-size:12px;font-family:Menlo, 'Lucida Console', monospace;text-anchor:middle;fill:#000000"
     y="164"
     x="480">F</text>
  <text
     id="text1819"
     style="font-size:12px;font-family:Menlo, 'Lucida Console', monospace;text-anchor:middle;fill:#000000"
     y="276"
     x="216">A</text>
  <text
     id="text1821"
     style="font-size:12px;font-family:Menlo, 'Lucida Console', monospace;text-anchor:middle;fill:#000000"
     y="260"
     x="40">s</text>
  <text
     id="text1823"
     style="font-size:12px;font-family:Menlo, 'Lucida Console', monospace;text-anchor:middle;fill:#000000"
     y="260"
     x="384">r</text>
  <text
     id="text1825"
     style="font-size:12px;font-family:Menlo, 'Lucida Console', monospace;text-anchor:middle;fill:#000000"
     y="260"
     x="80">o</text>
  <text
     id="text1827"
     style="font-size:12px;font-family:Menlo, 'Lucida Console', monospace;text-anchor:middle;fill:#800000;"
     y="292"
     x="424">↖</text>
  <text
     id="text1829"
     style="font-size:12px;font-family:Menlo, 'Lucida Console', monospace;text-anchor:middle;fill:#000000"
     y="116"
     x="112">t</text>
  <text
     id="text1831"
     style="font-size:12px;font-family:Menlo, 'Lucida Console', monospace;text-anchor:middle;fill:#000000"
     y="532"
     x="48">W</text>
  <text
     id="text1833"
     style="font-size:12px;font-family:Menlo, 'Lucida Console', monospace;text-anchor:middle;fill:#800000;"
     y="320"
     x="424">↙</text>
  <text
     id="text1835"
     style="font-size:12px;font-family:Menlo, 'Lucida Console', monospace;text-anchor:middle;fill:#000000"
     y="532"
     x="392">e</text>
  <text
     id="text1837"
     style="font-size:12px;font-family:Menlo, 'Lucida Console', monospace;text-anchor:middle;fill:#000000"
     y="116"
     x="128">r</text>
  <text
     id="text1839"
     style="font-size:12px;font-family:Menlo, 'Lucida Console', monospace;text-anchor:middle;fill:#000000"
     y="532"
     x="432">e</text>
  <text
     id="text1841"
     style="font-size:12px;font-family:Menlo, 'Lucida Console', monospace;text-anchor:middle;fill:#000000"
     y="116"
     x="144">e</text>
  <text
     id="text1843"
     style="font-size:12px;font-family:Menlo, 'Lucida Console', monospace;text-anchor:middle;fill:#000000"
     y="244"
     x="360">i</text>
  <text
     id="text1845"
     style="font-size:12px;font-family:Menlo, 'Lucida Console', monospace;text-anchor:middle;fill:#000000"
     y="244"
     x="56">e</text>
  <text
     id="text1847"
     style="font-size:12px;font-family:Menlo, 'Lucida Console', monospace;text-anchor:middle;fill:#000000"
     y="532"
     x="448">i</text>
  <text
     id="text1849"
     style="font-size:12px;font-family:Menlo, 'Lucida Console', monospace;text-anchor:middle;fill:#000000"
     y="244"
     x="32">F</text>
  <text
     id="text1851"
     style="font-size:12px;font-family:Menlo, 'Lucida Console', monospace;text-anchor:middle;fill:#000000"
     y="244"
     x="400">l</text>
  <text
     id="text1853"
     style="font-size:12px;font-family:Menlo, 'Lucida Console', monospace;text-anchor:middle;fill:#000000"
     y="532"
     x="488">e</text>
  <text
     id="text1855"
     style="font-size:12px;font-family:Menlo, 'Lucida Console', monospace;text-anchor:middle;fill:#000000"
     y="244"
     x="72">a</text>
  <text
     id="text1857"
     style="font-size:12px;font-family:Menlo, 'Lucida Console', monospace;text-anchor:middle;fill:#000000"
     y="532"
     x="464">n</text>
  <text
     id="text1859"
     style="font-size:12px;font-family:Menlo, 'Lucida Console', monospace;text-anchor:middle;fill:#000000"
     y="388"
     x="808">C</text>
  <text
     id="text1861"
     style="font-size:12px;font-family:Menlo, 'Lucida Console', monospace;text-anchor:middle;fill:#000000"
     y="212"
     x="800">P</text>
  <text
     id="text1863"
     style="font-size:12px;font-family:Menlo, 'Lucida Console', monospace;text-anchor:middle;fill:#000000"
     y="244"
     x="88">l</text>
  <text
     id="text1865"
     style="font-size:12px;font-family:Menlo, 'Lucida Console', monospace;text-anchor:middle;fill:#000000"
     y="532"
     x="216">S</text>
  <g
     id="g408"
     transform="matrix(0.51038249,0,0,0.51038249,433.84898,20.675779)">
    <path
       d="m -186.74093,-12.01085 h 52.82714 c 5.92449,0 11.72517,3.8757704 11.72517,12.35415044 V 134.97903 c 0,8.47838 -5.601,12.75351 -11.52549,12.75351 h -53.2265 c -5.92448,0 -11.52548,-4.27513 -11.52548,-12.75351 V 0.34330044 c 0,-8.47838004 5.80068,-12.35415044 11.72516,-12.35415044 z"
       id="path4"
       inkscape:connector-curvature="0"
       style="clip-rule:evenodd;fill:#070303;fill-opacity:1;fill-rule:evenodd;stroke-width:0.19967924" />
    <path
       stroke-miterlimit="10"
       d="m -186.14189,-10.41342 h 51.62907 c 5.92448,0 10.72677,3.2767404 10.72677,11.7551204 V 133.98063 c 0,8.47838 -4.60261,12.15448 -10.52709,12.15448 h -52.02843 c -5.92448,0 -10.52709,-3.6761 -10.52709,-12.15448 V 1.3417004 c 0,-8.47838 4.80229,-11.7551204 10.72677,-11.7551204 z"
       id="path6"
       inkscape:connector-curvature="0"
       style="clip-rule:evenodd;fill:#ffffff;fill-opacity:1;fill-rule:evenodd;stroke:#353535;stroke-width:0.19967924;stroke-miterlimit:10" />
    <path
       stroke-miterlimit="10"
       d="m -192.07636,10.15354 h 63.09865 c 0.21964,0 0.39935,0.21566 0.39935,0.48123 v 111.65664 c 0,0.26557 -0.17971,0.48122 -0.39935,0.48122 h -63.09865 c -0.21964,0 -0.39935,-0.21565 -0.39935,-0.48122 V 10.63477 c 0,-0.26557 0.17971,-0.48123 0.39935,-0.48123 z"
       id="path8"
       inkscape:connector-curvature="0"
       style="clip-rule:evenodd;fill:#ffffff;fill-opacity:1;fill-rule:evenodd;stroke:#180708;stroke-width:0.19967924;stroke-linecap:round;stroke-linejoin:round;stroke-miterlimit:10;stroke-opacity:1" />
    <path
       d="m -146.94885,-12.80957 h 11.38172 c 0.21965,0 0.39936,0.17971 0.39936,0.39936 v 0.39936 h -12.18043 v -0.39936 c 0,-0.21965 0.17971,-0.39936 0.39935,-0.39936 z"
       id="path10"
       inkscape:connector-curvature="0"
       style="clip-rule:evenodd;fill:#010101;fill-opacity:1;fill-rule:evenodd;stroke-width:0.19967924" />
    <path
       d="m -146.74917,-12.80957 h 0.19968 v 0.79872 h -0.59904 v -0.39936 c 0,-0.21965 0.17972,-0.39936 0.39936,-0.39936 z"
       id="path12"
       inkscape:connector-curvature="0"
       style="clip-rule:evenodd;opacity:0.3;fill:#ffffff;fill-rule:evenodd;stroke-width:0.19967924" />
    <path
       d="m -135.76681,-12.80957 h -0.19968 v 0.79872 h 0.59904 v -0.39936 c 0,-0.21965 -0.17971,-0.39936 -0.39936,-0.39936 z"
       id="path14"
       inkscape:connector-curvature="0"
       style="clip-rule:evenodd;opacity:0.3;fill:#ffffff;fill-rule:evenodd;stroke-width:0.19967924" />
    <path
       d="M -199.06513,47.0942 V 36.91056 c 0,-0.21965 0.17971,-0.39936 0.39936,-0.39936 h 0.19968 v 10.98236 h -0.19968 c -0.21965,0 -0.39936,-0.17971 -0.39936,-0.39936 z"
       id="path16"
       inkscape:connector-curvature="0"
       style="clip-rule:evenodd;fill:#010101;fill-opacity:1;fill-rule:evenodd;stroke-width:0.19967924" />
    <path
       d="M -199.06513,32.31794 V 22.1343 c 0,-0.21965 0.17971,-0.39936 0.39936,-0.39936 h 0.19968 V 32.7173 h -0.19968 c -0.21965,0 -0.39936,-0.17971 -0.39936,-0.39936 z"
       id="path18"
       inkscape:connector-curvature="0"
       style="clip-rule:evenodd;fill:#010101;fill-opacity:1;fill-rule:evenodd;stroke-width:0.19967924" />
    <path
       d="m -199.06513,17.14232 v -6.38974 c 0,-0.21965 0.17971,-0.39936 0.39936,-0.39936 h 0.19968 v 7.18845 h -0.19968 c -0.21965,0 -0.39936,-0.17971 -0.39936,-0.39935 z"
       id="path20"
       inkscape:connector-curvature="0"
       style="clip-rule:evenodd;fill:#010101;fill-opacity:1;fill-rule:evenodd;stroke-width:0.19967924" />
    <path
       d="m -165.7187,0.66878044 h 10.98236 c 0.77276,0 1.39776,0.62498996 1.39776,1.39774996 v 0.19968 c 0,0.77276 -0.625,1.39776 -1.39776,1.39776 h -10.98236 c -0.77275,0 -1.39775,-0.625 -1.39775,-1.39776 v -0.19968 c 0,-0.77276 0.625,-1.39774996 1.39775,-1.39774996 z"
       id="path27"
       style="clip-rule:evenodd;fill:url(#SVGID_1_);fill-rule:evenodd;stroke-width:0.19967924"
       inkscape:connector-curvature="0" />
    <path
       d="m -165.41918,1.4675004 h 10.583 c 0.38538,0 0.69888,0.31349 0.69888,0.69887 0,0.38538 -0.3135,0.69888 -0.69888,0.69888 h -10.583 c -0.38538,0 -0.69887,-0.3135 -0.69887,-0.69888 0,-0.38538 0.31349,-0.69887 0.69887,-0.69887 z"
       id="path29"
       inkscape:connector-curvature="0"
       style="clip-rule:evenodd;fill:#030308;fill-rule:evenodd;stroke-width:0.19967924" />
    <path
       d="m -160.12768,-5.1219196 c 0.77276,0 1.39776,0.625 1.39776,1.39776 0,0.77275 -0.625,1.39775 -1.39776,1.39775 -0.77276,0 -1.39775,-0.625 -1.39775,-1.39775 0,-0.77276 0.62499,-1.39776 1.39775,-1.39776 z"
       id="path31"
       inkscape:connector-curvature="0"
       style="clip-rule:evenodd;fill:#202022;fill-rule:evenodd;stroke-width:0.19967924" />
    <circle
       r="0.7547875"
       cx="-160.12767"
       cy="-3.7241547"
       id="circle33"
       style="clip-rule:evenodd;fill:#030308;fill-rule:evenodd;stroke-width:0.19967924" />
    <circle
       r="6.9887733"
       stroke-miterlimit="10"
       cx="-160.32735"
       cy="135.65195"
       id="circle35"
       style="clip-rule:evenodd;fill:#b1b1b1;fill-opacity:1;fill-rule:evenodd;stroke:#1c1c1c;stroke-width:0.19967924;stroke-miterlimit:10" />
    <path
       d="m -199.06513,32.11826 v -0.19968 h 0.59904 v 0.59904 h -0.19968 c -0.21965,0 -0.39936,-0.17971 -0.39936,-0.39936 z"
       id="path37"
       inkscape:connector-curvature="0"
       style="clip-rule:evenodd;opacity:0.3;fill:#010101;fill-opacity:1;fill-rule:evenodd;stroke-width:0.19967924" />
    <path
       d="m -199.06513,22.33398 v 0.19968 h 0.59904 v -0.59904 h -0.19968 c -0.21965,0 -0.39936,0.17971 -0.39936,0.39936 z"
       id="path39"
       inkscape:connector-curvature="0"
       style="clip-rule:evenodd;opacity:0.3;fill:#010101;fill-opacity:1;fill-rule:evenodd;stroke-width:0.19967924" />
    <path
       d="m -199.06513,16.94264 v -0.19968 h 0.59904 V 17.342 h -0.19968 c -0.21965,0 -0.39936,-0.17972 -0.39936,-0.39936 z"
       id="path41"
       inkscape:connector-curvature="0"
       style="clip-rule:evenodd;opacity:0.3;fill:#010101;fill-opacity:1;fill-rule:evenodd;stroke-width:0.19967924" />
    <path
       d="m -199.06513,10.95226 v 0.19968 h 0.59904 V 10.5529 h -0.19968 c -0.21965,0 -0.39936,0.17971 -0.39936,0.39936 z"
       id="path43"
       inkscape:connector-curvature="0"
       style="clip-rule:evenodd;opacity:0.3;fill:#010101;fill-opacity:1;fill-rule:evenodd;stroke-width:0.19967924" />
    <path
       d="m -199.06513,46.89452 v -0.19968 h 0.59904 v 0.59904 h -0.19968 c -0.21965,0 -0.39936,-0.17971 -0.39936,-0.39936 z"
       id="path45"
       inkscape:connector-curvature="0"
       style="clip-rule:evenodd;opacity:0.3;fill:#010101;fill-opacity:1;fill-rule:evenodd;stroke-width:0.19967924" />
    <path
       d="m -199.06513,37.11024 v 0.19968 h 0.59904 v -0.59904 h -0.19968 c -0.21965,0 -0.39936,0.17971 -0.39936,0.39936 z"
       id="path47"
       inkscape:connector-curvature="0"
       style="clip-rule:evenodd;opacity:0.3;fill:#010101;fill-opacity:1;fill-rule:evenodd;stroke-width:0.19967924" />
    <circle
       r="0.45127508"
       cx="-160.12767"
       cy="-3.7241547"
       id="circle49"
       style="clip-rule:evenodd;fill:#713a3d;fill-rule:evenodd;stroke-width:0.19967924" />
    <path
       d="m -161.76505,133.15596 c -0.52915,0 -0.95846,0.42931 -0.95846,0.95846 v 2.87538 c 0,0.52915 0.42931,0.95846 0.95846,0.95846 h 2.87538 c 0.52915,0 0.95846,-0.42931 0.95846,-0.95846 v -2.87538 c 0,-0.52915 -0.42931,-0.95846 -0.95846,-0.95846 z m 0.27157,0.40534 h 2.33025 c 0.42931,0 0.82069,0.38339 0.82069,0.8127 v 2.33026 c 0,0.42731 -0.38339,0.83465 -0.8107,0.83465 h -2.33026 c -0.42931,0 -0.82867,-0.39336 -0.82867,-0.82267 v -2.33026 c 0,-0.42731 0.39137,-0.82468 0.81869,-0.82468 z"
       id="path51"
       inkscape:connector-curvature="0"
       style="clip-rule:evenodd;fill:#202022;fill-rule:evenodd;stroke-width:0.19967924" />
  </g>
</svg>
